<?xml version="1.0" encoding="UTF-8"?>
<svg version="1.1" xmlns="http://www.w3.org/2000/svg" width="512" height="512">
<path d="M0 0 C2.35196628 0.00566913 4.70392527 0.00847183 7.05589676 0.0110817 C32.48200178 0.05200869 57.74544802 0.71635719 83.05586624 3.31805801 C84.40907974 3.45594742 84.40907974 3.45594742 85.78963089 3.59662247 C92.32156618 4.26881521 98.84633325 4.99350425 105.36836624 5.75555801 C106.63606354 5.90134796 106.63606354 5.90134796 107.92937088 6.05008316 C127.37946972 8.32979806 146.52335425 11.95349728 159.97383499 27.54071426 C164.01801946 32.72697017 167.05151146 38.04255788 169.79805374 43.98993301 C170.14004303 44.72385773 170.48203232 45.45778244 170.83438492 46.2139473 C174.87137091 54.96139323 178.55708834 63.85621964 182.24336624 72.75555801 C188.18700192 87.24842416 188.18700192 87.24842416 195.05586624 101.31805801 C195.44258499 100.54462051 195.82930374 99.77118301 196.22774124 98.97430801 C197.30534654 96.81909741 198.38622238 94.66551977 199.46992874 92.51337051 C200.40722184 90.6249327 201.32650857 88.72706354 202.20430374 86.81024551 C203.99480283 82.92844349 205.02418291 80.83691549 209.05586624 79.31805801 C215.93473417 78.40357626 222.98914079 79.92679133 229.74336624 81.13055801 C230.74947952 81.29620255 231.7555928 81.46184708 232.79219437 81.63251114 C238.87492588 82.69508454 244.2774502 83.68061868 248.90352249 88.07196426 C250.51049877 91.20420616 250.48962492 93.7499399 250.49336624 97.25555801 C250.52237015 99.06346817 250.52237015 99.06346817 250.55195999 100.90790176 C249.9463011 105.07121049 249.20477187 106.52819555 246.05586624 109.31805801 C238.56957935 112.98472407 229.59510986 114.16081502 221.49336624 116.00555801 C220.08897705 116.32872481 218.68467937 116.65228952 217.28047562 116.97626114 C213.87331441 117.76144707 210.46494916 118.54125249 207.05586624 119.31805801 C210.40155263 124.58910978 213.75000429 129.85754183 217.15352249 135.09149551 C230.39096011 155.5479645 236.69114801 173.5696528 236.57344437 197.95550919 C236.57887839 199.87091984 236.58600816 201.7863263 236.5946846 203.70172501 C236.61275517 208.85188185 236.60592204 214.00171446 236.59316826 219.15187621 C236.58297172 224.55870356 236.59245078 229.96550497 236.59871292 235.37233353 C236.60596321 244.4360791 236.59646348 253.4996937 236.57735062 262.56341934 C236.55551457 273.03950232 236.56269249 283.51527468 236.58465624 293.99135035 C236.60279889 303.0065655 236.60537628 312.02168715 236.59490156 321.03691465 C236.58866969 326.4130773 236.58782415 331.78909373 236.60104752 337.16524696 C236.61259134 342.20929066 236.60460719 347.25293204 236.58147049 352.29693222 C236.57617867 354.14766713 236.57770526 355.99843586 236.58652115 357.84915733 C236.59743984 360.37372907 236.58375926 362.89700816 236.56380081 365.42149734 C236.57718514 366.52138254 236.57718514 366.52138254 236.59083986 367.64348763 C236.51677026 372.46749821 235.48233279 374.93135057 232.05586624 378.31805801 C229.61185317 379.54006455 227.97512097 379.47114959 225.24238968 379.51092911 C223.74007797 379.5350235 223.74007797 379.5350235 222.20741653 379.55960464 C217.61995969 379.60404274 213.03264819 379.64512731 208.4450264 379.66815567 C206.02598318 379.6847089 203.60698874 379.71199021 201.18819046 379.75018692 C197.70111579 379.80497768 194.21518853 379.82683499 190.72774124 379.84149551 C189.64942032 379.86416489 188.5710994 379.88683426 187.46010208 379.91019058 C179.07258212 379.88661937 179.07258212 379.88661937 175.38887405 376.97284317 C164.89312643 365.02948197 172.05586624 342.38427344 172.05586624 330.31805801 C60.51586624 330.31805801 -51.02413376 330.31805801 -165.94413376 330.31805801 C-165.94413376 343.84805801 -165.94413376 357.37805801 -165.94413376 371.31805801 C-169.60139307 377.4134902 -169.60139307 377.4134902 -172.94413376 379.31805801 C-175.32766342 379.70573807 -175.32766342 379.70573807 -178.00053024 379.72211075 C-179.00514801 379.73479492 -180.00976578 379.7474791 -181.04482651 379.76054764 C-182.663675 379.75614418 -182.663675 379.75614418 -184.31522751 379.75165176 C-185.42970764 379.75689362 -186.54418777 379.76213547 -187.69244003 379.76753616 C-190.04854627 379.77395748 -192.40468455 379.77261799 -194.76078415 379.76410294 C-198.3647997 379.75559774 -201.96722812 379.78434741 -205.57108688 379.81610489 C-207.86079995 379.8177171 -210.15051582 379.81713899 -212.44022751 379.81415176 C-213.51743561 379.82538574 -214.59464371 379.83661972 -215.70449448 379.84819412 C-223.18145038 379.77859395 -223.18145038 379.77859395 -227.1006279 377.41205215 C-230.3862646 373.67997615 -230.09248784 370.54365513 -230.09130478 365.78226089 C-230.09498147 364.99554839 -230.09865816 364.20883588 -230.10244626 363.3982836 C-230.11350899 360.74702352 -230.11733147 358.0958026 -230.12113571 355.44452286 C-230.12739892 353.54902903 -230.13404559 351.65353644 -230.14104843 349.7580452 C-230.16212603 343.51503739 -230.17246119 337.27202925 -230.18241501 331.02899551 C-230.1864626 328.87793973 -230.19057953 326.72688407 -230.19476509 324.57582855 C-230.21383284 314.45985378 -230.22805483 304.34388634 -230.23637706 294.22789705 C-230.24612534 282.57150656 -230.27237503 270.91530719 -230.31287795 259.25898397 C-230.3431321 250.24050758 -230.35785513 241.22208563 -230.36115807 232.20355952 C-230.36349997 226.8228913 -230.37234633 221.44242686 -230.39761925 216.06181335 C-230.4210648 210.9876024 -230.42506753 205.91372691 -230.41485786 200.83947563 C-230.41436621 198.98851716 -230.42057583 197.13754126 -230.43441391 195.28663445 C-230.536102 180.8642264 -229.14249663 167.32600084 -222.31913376 154.31805801 C-221.98212448 153.671996 -221.6451152 153.02593399 -221.29789352 152.36029434 C-217.65835903 145.52120537 -213.53417045 138.97064317 -209.33036423 132.46796036 C-206.51309897 128.09866873 -203.73290492 123.70557086 -200.94413376 119.31805801 C-201.97296677 119.09666153 -203.00179977 118.87526505 -204.06180954 118.64715958 C-207.90015013 117.81761916 -211.73461046 116.97121102 -215.5681572 116.11981583 C-217.22373099 115.75456819 -218.88030509 115.39382303 -220.53788376 115.03778458 C-222.92871846 114.52341028 -225.31541504 113.9926239 -227.70194626 113.45868301 C-228.8038681 113.22716537 -228.8038681 113.22716537 -229.92805099 112.99097061 C-235.88976448 111.62998348 -240.44057868 109.57339063 -243.94413376 104.31805801 C-244.28007126 101.13837051 -244.28007126 101.13837051 -244.31913376 97.44305801 C-244.34749313 96.22876114 -244.37585251 95.01446426 -244.40507126 93.76337051 C-243.85925437 89.68362056 -242.90403655 88.13653201 -239.94413376 85.31805801 C-234.74920219 82.92367726 -229.35438081 82.15757091 -223.75663376 81.19305801 C-222.76598923 81.0113002 -221.7753447 80.82954239 -220.75468063 80.64227676 C-204.21823047 77.75788611 -204.21823047 77.75788611 -199.05741501 81.29852676 C-196.52046547 84.9234103 -194.78658662 88.54249565 -193.13163376 92.63055801 C-192.82032516 93.37112442 -192.50901657 94.11169083 -192.18827438 94.87469864 C-191.42928308 96.68460098 -190.68516076 98.50072666 -189.94413376 100.31805801 C-189.28413376 100.31805801 -188.62413376 100.31805801 -187.94413376 100.31805801 C-186.33705983 96.63526307 -184.73284573 92.95123385 -183.13096237 89.26617813 C-182.54791354 87.92538967 -181.9643764 86.58481344 -181.38035202 85.24444962 C-177.98672558 77.45219621 -174.64491604 69.64393436 -171.43241501 61.77508926 C-170.86241942 60.3864689 -170.29235193 58.99787804 -169.72220993 57.60931778 C-168.90301429 55.61299705 -168.08809639 53.61550715 -167.28730392 51.61172867 C-164.00701852 43.40439665 -160.37777013 36.30105794 -154.94413376 29.31805801 C-154.25319626 28.37962051 -153.56225876 27.44118301 -152.85038376 26.47430801 C-135.69733537 7.07167951 -108.37049061 6.78125893 -84.44413376 4.19305801 C-83.34793716 4.07231415 -83.34793716 4.07231415 -82.22959518 3.94913101 C-54.86310982 0.97331242 -27.50836703 -0.06752621 0 0 Z " fill="#1FBF91" transform="translate(252.94413375854492,124.68194198608398)"/>
<path d="M0 0 C153.78 0 307.56 0 466 0 C466 109 466 109 462 114 C459.55598693 115.22200654 457.91925473 115.15309158 455.18652344 115.19287109 C454.1849823 115.20893402 453.18344116 115.22499695 452.15155029 115.24154663 C447.56409344 115.28598472 442.97678195 115.3270693 438.38916016 115.35009766 C435.97011694 115.36665088 433.5511225 115.3939322 431.13232422 115.43212891 C427.64524955 115.48691967 424.15932229 115.50877697 420.671875 115.5234375 C419.59355408 115.54610687 418.51523315 115.56877625 417.40423584 115.59213257 C409.01671588 115.56856136 409.01671588 115.56856136 405.33300781 112.65478516 C394.83726019 100.71142396 402 78.06621543 402 66 C290.46 66 178.92 66 64 66 C64 79.53 64 93.06 64 107 C60.34274069 113.09543219 60.34274069 113.09543219 57 115 C54.61647034 115.38768005 54.61647034 115.38768005 51.94360352 115.40405273 C50.93898575 115.41673691 49.93436798 115.42942108 48.89930725 115.44248962 C47.28045876 115.43808617 47.28045876 115.43808617 45.62890625 115.43359375 C44.51442612 115.4388356 43.39994598 115.44407745 42.25169373 115.44947815 C39.89558749 115.45589946 37.53944921 115.45455998 35.18334961 115.44604492 C31.57933406 115.43753973 27.97690564 115.46628939 24.37304688 115.49804688 C22.08333381 115.49965909 19.79361794 115.49908097 17.50390625 115.49609375 C16.42669815 115.50732773 15.34949005 115.51856171 14.23963928 115.53013611 C6.76268338 115.46053594 6.76268338 115.46053594 2.84350586 113.09399414 C-22.07473892 84.78995687 0 37.70991181 0 0 Z " fill="#019F74" transform="translate(23,389)"/>
<path d="M0 0 C0.80379845 -0.00044186 1.60759689 -0.00088371 2.43575287 -0.00133896 C27.55146371 -0.0085543 52.45816783 0.39186736 77.4375 3.25 C78.27865356 3.34428284 79.11980713 3.43856567 79.9864502 3.53570557 C86.2248257 4.23663859 92.45781635 4.97564625 98.6875 5.75 C99.50478577 5.85146332 100.32207153 5.95292664 101.16412354 6.0574646 C118.50233442 8.24843579 133.89389108 10.97424384 146.4375 24.25 C152.49514448 32.3569572 156.30125651 41.38212969 160.0625 50.6875 C160.61361128 52.02969642 161.16569147 53.37149541 161.71875 54.71289062 C162.792482 57.31996167 163.85844952 59.92999997 164.91894531 62.54248047 C166.73956719 67.01449766 168.64870269 71.44863261 170.56787109 75.87915039 C171.4375 78.25 171.4375 78.25 171.4375 81.25 C56.5975 81.25 -58.2425 81.25 -176.5625 81.25 C-175.86766984 77.77584919 -175.3060936 75.31155019 -173.98364258 72.16918945 C-173.66273148 71.40101395 -173.34182037 70.63283844 -173.01118469 69.84138489 C-172.66331406 69.02361069 -172.31544342 68.20583649 -171.95703125 67.36328125 C-171.59534348 66.50623093 -171.2336557 65.6491806 -170.86100769 64.76615906 C-170.09426711 62.95383039 -169.32502798 61.14255704 -168.5534668 59.33227539 C-167.38799922 56.59305234 -166.23556319 53.8486012 -165.08398438 51.10351562 C-157.88817685 34.08485049 -150.93036076 19.5304228 -133.4453125 11.3359375 C-93.7152784 -3.63011871 -41.79203699 0.01058289 0 0 Z " fill="#DEF7FE" transform="translate(258.5625,135.75)"/>
<path d="M0 0 C10.56 0 21.12 0 32 0 C32.66 3.3 33.32 6.6 34 10 C37.58415229 21.97596266 44.53544272 30.78462224 55.515625 36.8203125 C63.35478794 40.54268233 70.96782786 42.12461312 79.65333462 42.12584114 C80.62294645 42.1280213 80.62294645 42.1280213 81.61214641 42.13024551 C83.77501908 42.13389067 85.93782061 42.13042598 88.10069275 42.12698364 C89.66830674 42.12813605 91.23592046 42.12972438 92.80353361 42.13171089 C97.1090686 42.13588784 101.41458143 42.13382086 105.7201165 42.13072467 C110.36436163 42.12846414 115.00860292 42.13195346 119.65284729 42.13470459 C128.7503674 42.13915436 137.84787926 42.1381893 146.94539969 42.13529195 C154.33888595 42.13303468 161.7323699 42.13272681 169.1258564 42.13381577 C170.70356131 42.13404561 170.70356131 42.13404561 172.31313904 42.13428011 C174.44978972 42.13459983 176.5864404 42.13492404 178.72309107 42.1352527 C198.76523685 42.1381052 218.80737805 42.13482413 238.84952307 42.12945233 C256.04901702 42.12498515 273.24850422 42.12575996 290.44799805 42.13037109 C310.41629302 42.13572202 330.38458399 42.13782985 350.35287958 42.13475883 C352.482029 42.13444028 354.61117842 42.13412591 356.74032784 42.13381577 C358.31173832 42.13358435 358.31173832 42.13358435 359.91489447 42.13334826 C367.29954079 42.13248462 374.68418457 42.13394273 382.06883049 42.13629532 C391.06825364 42.13909928 400.06766806 42.13834244 409.06709021 42.13301457 C413.65928323 42.13038555 418.25146171 42.12935902 422.84365463 42.13266373 C427.04733575 42.1356431 431.25098883 42.13400642 435.4546674 42.12868617 C436.97546363 42.12756901 438.49626223 42.12813767 440.01705693 42.13056196 C442.08501298 42.13360563 444.15287318 42.13048047 446.22082424 42.12584114 C447.36926357 42.12567879 448.51770289 42.12551644 449.70094341 42.12534916 C453.1913918 41.99272798 456.5529042 41.55145318 460 41 C460.65043719 39.27255984 461.29514844 37.5429631 461.9375 35.8125 C462.29714844 34.84957031 462.65679687 33.88664062 463.02734375 32.89453125 C463.91156562 30.2631722 464.52568586 27.73105092 465 25 C465.33 25 465.66 25 466 25 C466.09269402 35.73542807 466.16376206 46.47076088 466.20724869 57.20650768 C466.22812051 62.19160793 466.25643087 67.17643432 466.30175781 72.16137695 C466.34522985 76.97244774 466.36914016 81.78325517 466.37950897 86.59450722 C466.3868979 88.42974303 466.4013268 90.26496447 466.42292023 92.10008812 C466.45197257 94.67145268 466.45595529 97.24173005 466.45410156 99.81323242 C466.46848267 100.57136734 466.48286377 101.32950226 466.49768066 102.11061096 C466.4689736 105.79252894 466.11323888 107.82454329 464.09661865 110.94917297 C461.037335 113.94163972 459.35382082 114.13220905 455.18652344 114.19287109 C454.1849823 114.20893402 453.18344116 114.22499695 452.15155029 114.24154663 C447.56409344 114.28598472 442.97678195 114.3270693 438.38916016 114.35009766 C435.97011694 114.36665088 433.5511225 114.3939322 431.13232422 114.43212891 C427.64524955 114.48691967 424.15932229 114.50877697 420.671875 114.5234375 C419.59355408 114.54610687 418.51523315 114.56877625 417.40423584 114.59213257 C409.01671588 114.56856136 409.01671588 114.56856136 405.33300781 111.65478516 C394.83726019 99.71142396 402 77.06621543 402 65 C290.46 65 178.92 65 64 65 C64 78.53 64 92.06 64 106 C60.34274069 112.09543219 60.34274069 112.09543219 57 114 C54.61647034 114.38768005 54.61647034 114.38768005 51.94360352 114.40405273 C50.93898575 114.41673691 49.93436798 114.42942108 48.89930725 114.44248962 C47.28045876 114.43808617 47.28045876 114.43808617 45.62890625 114.43359375 C44.51442612 114.4388356 43.39994598 114.44407745 42.25169373 114.44947815 C39.89558749 114.45589946 37.53944921 114.45455998 35.18334961 114.44604492 C31.57933406 114.43753973 27.97690564 114.46628939 24.37304688 114.49804688 C22.08333381 114.49965909 19.79361794 114.49908097 17.50390625 114.49609375 C16.42669815 114.50732773 15.34949005 114.51856171 14.23963928 114.53013611 C6.76268338 114.46053594 6.76268338 114.46053594 2.84350586 112.09399414 C0.21942504 109.11336361 -0.12475118 107.53551492 -0.12025452 103.65939331 C-0.12162918 102.74791534 -0.12300385 101.83643738 -0.12442017 100.89733887 C-0.12082489 99.89464966 -0.11722961 98.89196045 -0.11352539 97.85888672 C-0.11367142 96.80520905 -0.11381744 95.75153137 -0.1139679 94.66592407 C-0.1132692 91.1704912 -0.10547881 87.6751111 -0.09765625 84.1796875 C-0.09579192 81.76115956 -0.09436809 79.34263124 -0.09336853 76.92410278 C-0.08954456 70.54871585 -0.07971529 64.17335159 -0.06866455 57.79797363 C-0.05844785 51.29630846 -0.05387035 44.79463963 -0.04882812 38.29296875 C-0.03809293 25.52863426 -0.02049708 12.76432256 0 0 Z " fill="#017A54" transform="translate(23,390)"/>
<path d="M0 0 C2.35196628 0.00566913 4.70392527 0.00847183 7.05589676 0.0110817 C32.48200178 0.05200869 57.74544802 0.71635719 83.05586624 3.31805801 C84.40907974 3.45594742 84.40907974 3.45594742 85.78963089 3.59662247 C92.32156618 4.26881521 98.84633325 4.99350425 105.36836624 5.75555801 C106.63606354 5.90134796 106.63606354 5.90134796 107.92937088 6.05008316 C127.37946972 8.32979806 146.52335425 11.95349728 159.97383499 27.54071426 C164.00996007 32.71663481 167.03904553 38.01877566 169.77852249 43.95477676 C170.28995804 45.05287674 170.28995804 45.05287674 170.81172562 46.17316055 C174.56050718 54.29523563 178.04643087 62.5280218 181.49531937 70.78094864 C182.57893974 73.37325594 183.66858977 75.96297162 184.75899124 78.55243301 C185.45204249 80.20333076 186.14476422 81.8543669 186.83711624 83.50555801 C187.16200027 84.27827042 187.48688431 85.05098282 187.82161331 85.84711075 C190.05586624 91.2018611 190.05586624 91.2018611 190.05586624 92.31805801 C186.09586624 92.31805801 182.13586624 92.31805801 178.05586624 92.31805801 C174.8001567 86.14169253 171.98634017 79.87300909 169.34883499 73.41571426 C169.01715317 72.60758286 168.68547134 71.79945145 168.34373856 70.96683121 C166.96053084 67.59270451 165.57963538 64.21789949 164.22066116 60.83392715 C157.84027212 44.98467975 151.44378963 32.29004368 135.61055374 24.04462051 C126.61982671 20.29613558 116.64565801 19.48740916 107.05586624 18.31805801 C106.41896866 18.24029129 105.78207108 18.16252457 105.12587357 18.08240128 C99.9382789 17.45207217 94.74776494 16.84927457 89.55586624 16.25555801 C88.84882553 16.17338028 88.14178482 16.09120255 87.41331863 16.00653458 C81.96666084 15.37859238 76.51504535 14.82545935 71.05586624 14.31805801 C69.59254364 14.18145264 69.59254364 14.18145264 68.09965897 14.04208755 C48.29507817 12.25975015 28.61552467 12.03727223 8.75044632 12.12244034 C5.57017858 12.13327809 2.38995306 12.13285769 -0.79032993 12.13244915 C-25.39553699 12.13309149 -49.89599998 12.47828189 -74.38163376 15.13055801 C-75.20400528 15.21731796 -76.0263768 15.30407791 -76.87366867 15.39346695 C-87.53095993 16.52009965 -98.15833412 17.78398175 -108.75663376 19.38055801 C-109.76202194 19.5304921 -110.76741013 19.68042618 -111.80326462 19.83490372 C-127.84642818 22.40263508 -138.60834502 27.87760643 -148.43461227 41.0919838 C-150.78630465 44.55999788 -152.42738483 48.22429341 -154.06913376 52.06805801 C-154.61730759 53.31691788 -154.61730759 53.31691788 -155.17655563 54.59100723 C-156.44555753 57.49450455 -157.69592185 60.40556357 -158.94413376 63.31805801 C-159.45943649 64.51527481 -159.97473923 65.71249161 -160.5056572 66.9459877 C-163.64365556 74.23661054 -166.7659533 81.53372074 -169.87186813 88.83807755 C-170.52484358 90.34830628 -171.20831207 91.84641464 -171.94413376 93.31805801 C-168.97413376 93.31805801 -166.00413376 93.31805801 -162.94413376 93.31805801 C-167.30122739 102.37824977 -171.95345444 111.18760429 -177.00663376 119.88055801 C-192.02980601 145.86652236 -197.97983292 170.65910469 -198.26054001 200.45087051 C-198.28114512 202.297463 -198.30214243 204.14405114 -198.32351303 205.99063492 C-198.3783668 210.82050408 -198.42793588 215.65041317 -198.47636032 220.48035049 C-198.52684552 225.42108027 -198.58238969 230.36175297 -198.63749313 235.30243301 C-198.74462499 244.97426079 -198.84569907 254.64613781 -198.94413376 264.31805801 C-209.17413376 264.31805801 -219.40413376 264.31805801 -229.94413376 264.31805801 C-230.03499305 253.38139461 -230.10816925 242.44498745 -230.15138245 231.50802994 C-230.17213677 226.42796019 -230.20022852 221.34816508 -230.24589157 216.26825333 C-230.28978768 211.35339079 -230.3133619 206.43879014 -230.32364273 201.52374649 C-230.33095643 199.66131857 -230.34523482 197.79890276 -230.36705399 195.93658829 C-230.53202653 181.25365738 -229.27158155 167.57208614 -222.31913376 154.31805801 C-221.98212448 153.671996 -221.6451152 153.02593399 -221.29789352 152.36029434 C-217.65835903 145.52120537 -213.53417045 138.97064317 -209.33036423 132.46796036 C-206.51309897 128.09866873 -203.73290492 123.70557086 -200.94413376 119.31805801 C-201.97296677 119.09666153 -203.00179977 118.87526505 -204.06180954 118.64715958 C-207.90015013 117.81761916 -211.73461046 116.97121102 -215.5681572 116.11981583 C-217.22373099 115.75456819 -218.88030509 115.39382303 -220.53788376 115.03778458 C-222.92871846 114.52341028 -225.31541504 113.9926239 -227.70194626 113.45868301 C-228.8038681 113.22716537 -228.8038681 113.22716537 -229.92805099 112.99097061 C-235.88976448 111.62998348 -240.44057868 109.57339063 -243.94413376 104.31805801 C-244.28007126 101.13837051 -244.28007126 101.13837051 -244.31913376 97.44305801 C-244.34749313 96.22876114 -244.37585251 95.01446426 -244.40507126 93.76337051 C-243.85925437 89.68362056 -242.90403655 88.13653201 -239.94413376 85.31805801 C-234.74920219 82.92367726 -229.35438081 82.15757091 -223.75663376 81.19305801 C-222.76598923 81.0113002 -221.7753447 80.82954239 -220.75468063 80.64227676 C-204.21823047 77.75788611 -204.21823047 77.75788611 -199.05741501 81.29852676 C-196.52046547 84.9234103 -194.78658662 88.54249565 -193.13163376 92.63055801 C-192.82032516 93.37112442 -192.50901657 94.11169083 -192.18827438 94.87469864 C-191.42928308 96.68460098 -190.68516076 98.50072666 -189.94413376 100.31805801 C-189.28413376 100.31805801 -188.62413376 100.31805801 -187.94413376 100.31805801 C-186.33705983 96.63526307 -184.73284573 92.95123385 -183.13096237 89.26617813 C-182.54791354 87.92538967 -181.9643764 86.58481344 -181.38035202 85.24444962 C-177.98672558 77.45219621 -174.64491604 69.64393436 -171.43241501 61.77508926 C-170.86241942 60.3864689 -170.29235193 58.99787804 -169.72220993 57.60931778 C-168.90301429 55.61299705 -168.08809639 53.61550715 -167.28730392 51.61172867 C-164.00701852 43.40439665 -160.37777013 36.30105794 -154.94413376 29.31805801 C-154.25319626 28.37962051 -153.56225876 27.44118301 -152.85038376 26.47430801 C-135.69733537 7.07167951 -108.37049061 6.78125893 -84.44413376 4.19305801 C-83.34793716 4.07231415 -83.34793716 4.07231415 -82.22959518 3.94913101 C-54.86310982 0.97331242 -27.50836703 -0.06752621 0 0 Z " fill="#35A880" transform="translate(252.94413375854492,124.68194198608398)"/>
<path d="M0 0 C10.1477548 0.49298501 20.27150992 1.1553896 30.3984375 1.97265625 C85.28546754 6.34294161 139.32117415 5.49747604 194.14825439 0.62857056 C198.78209292 0.22512987 203.34266784 -0.11275646 208 0 C204.38027945 8.98366435 200.39396546 17.76200006 196.26904297 26.5222168 C195.23432408 28.72080851 194.20482999 30.92179641 193.17578125 33.12304688 C192.51853303 34.52358014 191.86099228 35.92397617 191.203125 37.32421875 C190.89586487 37.98137375 190.58860474 38.63852875 190.27203369 39.31559753 C188.11521813 43.88478187 188.11521813 43.88478187 187 45 C185.10646223 45.21256245 183.20552579 45.35948207 181.30395508 45.48071289 C179.46726006 45.60072411 179.46726006 45.60072411 177.59346008 45.72315979 C176.23550672 45.80669859 174.87752964 45.88985262 173.51953125 45.97265625 C172.11308416 46.06076606 170.70664612 46.14902039 169.30021667 46.2374115 C166.32509622 46.42309812 163.34976547 46.60489201 160.37426758 46.78442383 C157.38457373 46.96527683 154.39538601 47.15229606 151.40649414 47.34594727 C119.62761714 49.40232558 88.26418181 49.11915573 56.49072266 47.14575195 C52.46686605 46.89784252 48.44239116 46.66039046 44.41796875 46.421875 C36.61136425 45.95774618 28.80548098 45.48269525 21 45 C15.82548321 34.76436898 10.81049986 24.47403642 6 14.0625 C5.41032433 12.79484367 4.82048085 11.5272654 4.23046875 10.25976562 C0 1.13007721 0 1.13007721 0 0 Z " fill="#019F74" transform="translate(152,301)"/>
<path d="M0 0 C-0.56589844 1.09699219 -1.13179688 2.19398438 -1.71484375 3.32421875 C-2.45604926 4.77848273 -3.19691695 6.23291893 -3.9375 7.6875 C-4.31068359 8.40873047 -4.68386719 9.12996094 -5.06835938 9.87304688 C-9.71472704 19.0402047 -10.18611381 27.48586251 -7.5 37.4375 C-4.02147857 47.72762088 1.63204801 54.8050537 10.80078125 60.5625 C18.7640854 64.14063911 26.61083981 65.44615955 35.28227234 65.39872742 C36.25538937 65.40537424 37.2285064 65.41202107 38.23111182 65.41886932 C41.45846461 65.43736941 44.6854424 65.4349028 47.9128418 65.43237305 C50.23956317 65.44139813 52.5662798 65.45172717 54.89299011 65.46325684 C61.18553913 65.4907651 67.47799778 65.50010302 73.77059913 65.50611091 C80.35563197 65.5155106 86.94059773 65.54171532 93.52558899 65.56611633 C104.57035032 65.60528108 115.61510106 65.63316048 126.65991211 65.65356445 C138.03135778 65.67460026 149.40276027 65.70189795 160.77416992 65.73754883 C161.47621092 65.73974765 162.17825192 65.74194648 162.90156689 65.74421193 C166.42383105 65.75528224 169.94609481 65.76647492 173.4683584 65.77772844 C202.64553158 65.87079047 231.82273603 65.94222433 261 66 C264 72.625 264 72.625 264 76 C149.16 76 34.32 76 -84 76 C-83.30516984 72.52584919 -82.7435936 70.06155019 -81.42114258 66.91918945 C-81.10023148 66.15101395 -80.77932037 65.38283844 -80.44868469 64.59138489 C-80.10081406 63.77361069 -79.75294342 62.95583649 -79.39453125 62.11328125 C-79.03284348 61.25623093 -78.6711557 60.3991806 -78.29850769 59.51615906 C-77.53176711 57.70383039 -76.76252798 55.89255704 -75.9909668 54.08227539 C-74.82549922 51.34305234 -73.67306319 48.5986012 -72.52148438 45.85351562 C-65.31153629 28.80140692 -58.37038604 14.41749302 -40.94921875 6.09375 C-34.84147103 3.82862502 -28.41790102 2.94813311 -22 2 C-21.31583008 1.89558594 -20.63166016 1.79117188 -19.92675781 1.68359375 C-13.23553488 0.67335656 -6.77675544 -0.11222652 0 0 Z " fill="#C0EBFA" transform="translate(166,141)"/>
<path d="M0 0 C0.33 0 0.66 0 1 0 C1.09269402 10.73542807 1.16376206 21.47076088 1.20724869 32.20650768 C1.22812051 37.19160793 1.25643087 42.17643432 1.30175781 47.16137695 C1.34522985 51.97244774 1.36914016 56.78325517 1.37950897 61.59450722 C1.3868979 63.42974303 1.4013268 65.26496447 1.42292023 67.10008812 C1.45197257 69.67145268 1.45595529 72.24173005 1.45410156 74.81323242 C1.46848267 75.57136734 1.48286377 76.32950226 1.49768066 77.11061096 C1.4689736 80.79252894 1.11323888 82.82454329 -0.90338135 85.94917297 C-3.962665 88.94163972 -5.64617918 89.13220905 -9.81347656 89.19287109 C-10.8150177 89.20893402 -11.81655884 89.22499695 -12.84844971 89.24154663 C-17.43590656 89.28598472 -22.02321805 89.3270693 -26.61083984 89.35009766 C-29.02988306 89.36665088 -31.4488775 89.3939322 -33.86767578 89.43212891 C-37.35475045 89.48691967 -40.84067771 89.50877697 -44.328125 89.5234375 C-45.40644592 89.54610687 -46.48476685 89.56877625 -47.59576416 89.59213257 C-55.98328412 89.56856136 -55.98328412 89.56856136 -59.66699219 86.65478516 C-62.5596114 83.36320485 -63.12655377 81.12997466 -63.11352539 76.89575195 C-63.11344986 76.07512772 -63.11337433 75.25450348 -63.11329651 74.40901184 C-63.10813522 73.52767075 -63.10297394 72.64632965 -63.09765625 71.73828125 C-63.0962413 70.83248825 -63.09482635 69.92669525 -63.09336853 68.99345398 C-63.08777001 66.09976909 -63.07521781 63.20616151 -63.0625 60.3125 C-63.05748481 58.35091258 -63.05292193 56.38932394 -63.04882812 54.42773438 C-63.03780107 49.61845979 -63.02053747 44.809243 -63 40 C-62.43308945 39.97559845 -61.86617889 39.9511969 -61.28208923 39.92605591 C-58.67614306 39.81155953 -56.07051137 39.69097588 -53.46484375 39.5703125 C-52.57325562 39.53204346 -51.68166748 39.49377441 -50.76306152 39.4543457 C-35.36892451 38.72717482 -20.54604954 35.11273587 -9.71484375 23.296875 C-4.45705043 16.2545459 -1.43579375 8.61476248 0 0 Z " fill="#374149" transform="translate(488,415)"/>
<path d="M0 0 C1.55820603 3.03440122 2.69301431 6.00486851 3.75 9.25 C7.54143443 19.73220108 14.95613286 27.49207453 24.75 32.75 C37.40521624 38.54395442 50.31838402 38.65379229 64 39 C64.07426628 44.74744858 64.12865726 50.4946166 64.16479492 56.24243164 C64.17986301 58.19690823 64.20032124 60.15135112 64.22631836 62.10571289 C64.26278865 64.91821623 64.27974622 67.73027174 64.29296875 70.54296875 C64.30845261 71.41398727 64.32393646 72.2850058 64.33988953 73.18241882 C64.34120564 77.94795064 64.15984614 81.17459483 61 85 C57.94976986 87.73293391 56.01729876 88.37909926 51.94360352 88.40405273 C50.93898575 88.41673691 49.93436798 88.42942108 48.89930725 88.44248962 C47.28045876 88.43808617 47.28045876 88.43808617 45.62890625 88.43359375 C44.51442612 88.4388356 43.39994598 88.44407745 42.25169373 88.44947815 C39.89558749 88.45589946 37.53944921 88.45455998 35.18334961 88.44604492 C31.57933406 88.43753973 27.97690564 88.46628939 24.37304688 88.49804688 C22.08333381 88.49965909 19.79361794 88.49908097 17.50390625 88.49609375 C16.42669815 88.50732773 15.34949005 88.51856171 14.23963928 88.53013611 C6.76268338 88.46053594 6.76268338 88.46053594 2.84350586 86.09399414 C-0.49043804 82.30704714 -0.13637818 79.07368855 -0.11352539 74.24560547 C-0.11367142 73.44552063 -0.11381744 72.64543579 -0.1139679 71.82110596 C-0.1132698 69.16977247 -0.10548221 66.51850875 -0.09765625 63.8671875 C-0.0957917 62.03158608 -0.09436797 60.19598417 -0.09336853 58.36038208 C-0.08954623 53.52376945 -0.07971839 48.68718673 -0.06866455 43.85058594 C-0.05844426 38.91732183 -0.05386958 33.98405289 -0.04882812 29.05078125 C-0.03809588 19.36717434 -0.02102289 9.68358965 0 0 Z " fill="#374149" transform="translate(23,416)"/>
<path d="M0 0 C4.61678852 6.77128982 4.60625519 12.6259332 3.875 20.75 C2.3849666 26.2108956 0.09680503 29.97447752 -4.125 33.75 C-11.72910721 37.05075191 -20.44043411 37.59401152 -28.60305786 38.51473999 C-32.15412002 38.91552968 -35.70206478 39.34206272 -39.25 39.76953125 C-40.2868972 39.89386284 -40.2868972 39.89386284 -41.34474182 40.02070618 C-46.6578296 40.66803597 -51.92166495 41.48522522 -57.1875 42.4375 C-64.82508512 43.81246368 -72.3782558 44.41864958 -80.125 44.75 C-78.14259329 38.2729885 -74.91975127 32.87320944 -71.5 27.0625 C-70.90832031 26.03705078 -70.31664062 25.01160156 -69.70703125 23.95507812 C-60.37226503 7.99726503 -60.37226503 7.99726503 -54.125 1.75 C-45.49562864 -0.29044249 -36.31696217 -0.6420528 -27.5 -1.375 C-26.46415771 -1.46265625 -25.42831543 -1.5503125 -24.36108398 -1.640625 C-4.44799875 -3.2025591 -4.44799875 -3.2025591 0 0 Z " fill="#DCF7FD" transform="translate(451.125,294.25)"/>
<path d="M0 0 C3.63211719 0.39602524 7.25056385 0.67968713 10.8984375 0.8828125 C11.7944165 0.94291504 12.69039551 1.00301758 13.61352539 1.06494141 C15.32345402 1.1775306 17.0352163 1.26585087 18.74780273 1.32568359 C23.12249729 1.64806278 25.63423792 2.27421029 28.609375 5.60546875 C29.56543918 6.89500152 30.48576114 8.21169961 31.37109375 9.55078125 C31.81517578 10.21150635 32.25925781 10.87223145 32.71679688 11.55297852 C34.08738179 13.67200142 35.39244855 15.82001096 36.68359375 17.98828125 C37.38319214 19.1494043 37.38319214 19.1494043 38.09692383 20.33398438 C41.3138453 25.70298317 44.46467975 31.11001877 47.55859375 36.55078125 C47.9450708 37.22681396 48.33154785 37.90284668 48.72973633 38.59936523 C51.37109375 43.30924824 51.37109375 43.30924824 51.37109375 45.55078125 C39.96136363 44.99389317 28.83013238 43.38375202 17.55859375 41.61328125 C14.13600879 41.07944207 10.71277008 40.55002604 7.2890625 40.0234375 C6.04163773 39.82942856 6.04163773 39.82942856 4.76901245 39.63150024 C0.69663242 39.00938436 -3.36890017 38.44928912 -7.46630859 38.01904297 C-8.23383957 37.93786728 -9.00137054 37.85669159 -9.79216003 37.77305603 C-11.22184285 37.62762215 -12.65261049 37.49230551 -14.08442688 37.36964417 C-20.13956064 36.76068528 -24.98559528 34.88863421 -28.94140625 30.17578125 C-29.43253906 29.61117188 -29.92367187 29.0465625 -30.4296875 28.46484375 C-33.06129187 24.26456315 -32.8160022 19.44116729 -32.87890625 14.61328125 C-32.9046875 13.42863281 -32.93046875 12.24398438 -32.95703125 11.0234375 C-32.508139 6.27266124 -31.15827417 3.03940781 -27.72265625 -0.3046875 C-20.41832109 -4.29754236 -8.03347907 -0.89210984 0 0 Z " fill="#DCF7FD" transform="translate(89.62890625,293.44921875)"/>
<path d="M0 0 C3.13440153 2.57597367 3.97774695 5.33511945 5.25 9.125 C8.99002788 19.13180079 14.43865736 26.0769257 24 31 C28.9230155 33.19701633 33.94798107 35.1229653 39 37 C37.41127355 40.1774529 34.11702749 40.59053256 30.9375 41.75 C24.88712264 44.07191341 19.77152778 46.50309252 15 51 C14.47277344 51.47566406 13.94554687 51.95132813 13.40234375 52.44140625 C8.84757732 57.08936483 6.6908477 62.85308488 4.296875 68.79296875 C3.29390674 71.27320051 2.24374339 73.63571422 1 76 C-1.55883886 72.89972567 -2.98708747 69.86278441 -4.4375 66.125 C-8.53339777 56.0625407 -14.28355996 48.97370861 -24 44 C-27.42252095 42.62385311 -30.86087146 41.33950914 -34.33984375 40.11328125 C-37 39 -37 39 -38 37 C-37.02160156 36.63648438 -36.04320312 36.27296875 -35.03515625 35.8984375 C-23.14623044 31.3829831 -12.11617447 26.63705674 -6.37109375 14.58203125 C-5.29960218 12.13909415 -4.29453253 9.68240195 -3.296875 7.20703125 C-2.29390674 4.72679949 -1.24374339 2.36428578 0 0 Z " fill="#52BBF3" transform="translate(342,8)"/>
<path d="M0 0 C2.70825558 3.85348888 4.69985459 7.75849512 6.58984375 12.0625 C6.96560547 12.8565625 7.34136719 13.650625 7.72851562 14.46875 C10.30917142 20.25713684 10.30917142 20.25713684 9.6328125 23.73046875 C9.14425781 24.50003906 8.65570313 25.26960938 8.15234375 26.0625 C7.51039062 27.08988281 6.8684375 28.11726563 6.20703125 29.17578125 C5.48773438 30.23152344 4.7684375 31.28726563 4.02734375 32.375 C3.30289063 33.44363281 2.5784375 34.51226562 1.83203125 35.61328125 C1.27773438 36.42152344 0.7234375 37.22976562 0.15234375 38.0625 C-4.38196519 37.11743339 -8.91482108 36.16632997 -13.4453125 35.203125 C-16.9283192 34.46299392 -20.41471783 33.74559244 -23.90625 33.046875 C-25.49096511 32.71913509 -27.07560372 32.39102503 -28.66015625 32.0625 C-29.39347168 31.92102539 -30.12678711 31.77955078 -30.88232422 31.63378906 C-36.85933112 30.36950202 -41.34853057 28.31118851 -44.84765625 23.0625 C-45.18359375 19.8828125 -45.18359375 19.8828125 -45.22265625 16.1875 C-45.25101563 14.97320312 -45.279375 13.75890625 -45.30859375 12.5078125 C-44.76277686 8.42806255 -43.80755904 6.88097399 -40.84765625 4.0625 C-35.65272468 1.66811925 -30.2579033 0.90201289 -24.66015625 -0.0625 C-23.66951172 -0.24425781 -22.67886719 -0.42601562 -21.65820312 -0.61328125 C-5.13685887 -3.49503704 -5.13685887 -3.49503704 0 0 Z " fill="#019F73" transform="translate(53.84765625,205.9375)"/>
<path d="M0 0 C1.00611328 0.16564453 2.01222656 0.33128906 3.04882812 0.50195312 C9.13155964 1.56452653 14.53408396 2.55006067 19.16015625 6.94140625 C20.76713253 10.07364815 20.74625868 12.61938189 20.75 16.125 C20.76933594 17.33027344 20.78867187 18.53554687 20.80859375 19.77734375 C20.20293486 23.94065248 19.46140563 25.39763754 16.3125 28.1875 C9.43013514 31.5497875 1.35411464 32.70191678 -6.07397461 34.40454102 C-8.14622472 34.87986847 -10.21673027 35.36229776 -12.28710938 35.84570312 C-22.39391241 38.1875 -22.39391241 38.1875 -24.6875 38.1875 C-29.04142612 33.55905947 -33.17991783 28.47702262 -34.6875 22.1875 C-33.8665716 13.97978265 -29.04485232 4.48074614 -22.6875 -0.8125 C-16.32116983 -3.99566509 -6.68751078 -1.19187652 0 0 Z " fill="#019F73" transform="translate(482.6875,205.8125)"/>
<path d="M0 0 C2.85911184 3.28797861 4.32542962 6.91994861 6.015625 10.87890625 C7.0804568 13.17336524 8.42365621 15.02957026 10 17 C10 17.66 10 18.32 10 19 C10.87205078 19.43505859 10.87205078 19.43505859 11.76171875 19.87890625 C13.14145499 20.56997833 14.51945421 21.26454678 15.89453125 21.96484375 C20.20202823 24.14929741 24.54171929 26.14238304 29 28 C29 28.66 29 29.32 29 30 C28.20335937 30.31453125 27.40671875 30.6290625 26.5859375 30.953125 C15.41117817 35.46653144 8.78262334 39.60584511 3.734375 50.80859375 C2.77448032 53.19143089 1.85914493 55.57923282 1 58 C-2.4364924 56.2817538 -3.20826758 51.84583576 -4.52539062 48.3671875 C-8.61488184 38.19176055 -17.75093459 33.78549586 -27.3125 29.69921875 C-27.869375 29.46847656 -28.42625 29.23773438 -29 29 C-26.5854825 26.5854825 -24.50273891 25.95084275 -21.3125 24.75 C-11.27333766 20.60704425 -7.34228498 15.82978799 -3 6 C-2.40351121 4.78785812 -1.80077728 3.57873493 -1.1875 2.375 C-0.795625 1.59125 -0.40375 0.8075 0 0 Z " fill="#52BBF3" transform="translate(473,17)"/>
<path d="M0 0 C2.4145175 2.4145175 3.04915725 4.49726109 4.25 7.6875 C8.39295575 17.72666234 13.17021201 21.65771502 23 26 C24.21214188 26.59648879 25.42126507 27.19922272 26.625 27.8125 C27.40875 28.204375 28.1925 28.59625 29 29 C27.42055653 32.15888693 24.61087447 32.40558625 21.375 33.625 C11.56447012 37.65008635 7.61006672 43.02393202 3.5625 52.5 C2.68145994 54.65778297 1.83451374 56.82353925 1 59 C-2.06655481 57.46672259 -2.16253344 55.05765213 -3.25 51.875 C-7.11114515 41.6935942 -11.24770679 37.88878639 -21.09765625 33.26171875 C-23.71451799 32.12410591 -26.34247663 31.0386284 -29 30 C-26.15646531 27.68061917 -23.57686841 26.34014371 -20.125 25.125 C-9.62793625 21.00941113 -6.07297483 13.70864567 -1.6875 3.9375 C-1.12067675 2.62686126 -0.55649075 1.31505914 0 0 Z " fill="#52BAF3" transform="translate(423,66)"/>
</svg>
